<svg width="244" height="41" viewBox="0 0 244 41" fill="none" xmlns="http://www.w3.org/2000/svg">
<path d="M51.2103 0.855997L33.1783 40H28.8103L24.8903 6.736L8.93025 40L4.61825 40.056L0.698251 0.855997H4.95425L7.81025 34.96L23.8823 0.855997H28.3063L31.9463 35.072L46.9543 0.855997H51.2103ZM67.9026 40.392C64.692 40.392 61.8546 39.72 59.3906 38.376C56.964 37.032 55.0786 35.1467 53.7346 32.72C52.3906 30.256 51.7186 27.456 51.7186 24.32C51.7186 19.952 52.7266 15.9387 54.7426 12.28C56.7586 8.62133 59.5213 5.728 63.0306 3.6C66.54 1.472 70.4413 0.407999 74.7346 0.407999C77.9453 0.407999 80.764 1.08 83.1906 2.424C85.6546 3.768 87.54 5.672 88.8466 8.136C90.1906 10.5627 90.8626 13.3627 90.8626 16.536C90.8626 20.904 89.8546 24.9173 87.8386 28.576C85.86 32.1973 83.116 35.072 79.6066 37.2C76.0973 39.328 72.196 40.392 67.9026 40.392ZM68.4626 36.864C71.972 36.864 75.1266 35.9493 77.9266 34.12C80.7266 32.2907 82.9106 29.8453 84.4786 26.784C86.0466 23.6853 86.8306 20.344 86.8306 16.76C86.8306 12.8027 85.6733 9.68533 83.3586 7.408C81.0813 5.13067 78.0013 3.992 74.1186 3.992C70.6093 3.992 67.4546 4.90667 64.6546 6.736C61.892 8.56533 59.7266 11.0293 58.1586 14.128C56.5906 17.1893 55.8066 20.4933 55.8066 24.04C55.8066 27.9973 56.9453 31.1333 59.2226 33.448C61.5373 35.7253 64.6173 36.864 68.4626 36.864ZM113.099 0.855997C116.945 0.855997 119.819 1.67733 121.723 3.32C123.665 4.96267 124.635 7.16533 124.635 9.928C124.635 10.4133 124.561 11.1787 124.411 12.224C123.926 15.0613 122.694 17.488 120.715 19.504C118.737 21.4827 116.105 22.7707 112.819 23.368L119.931 40H115.227L108.451 23.648H101.171L98.3154 40H94.3954L101.283 0.855997H113.099ZM120.323 12.224C120.435 11.4773 120.491 10.8053 120.491 10.208C120.491 8.22933 119.838 6.69866 118.531 5.616C117.225 4.53333 115.209 3.992 112.483 3.992H104.643L101.731 20.512H109.627C112.726 20.512 115.171 19.7653 116.963 18.272C118.755 16.7787 119.875 14.7627 120.323 12.224ZM138.295 20.4L153.303 40H148.151L134.375 21.912L131.183 40H127.263L134.151 0.855997H138.071L134.823 19.224L155.095 0.855997H160.079L138.295 20.4ZM191.459 0.519998L189.947 9.256H174.155L172.923 16.2H184.515L183.059 24.544H171.467L168.723 40H157.691L164.691 0.519998H191.459ZM207.057 0.519998L200.113 40H189.081L196.081 0.519998H207.057ZM243.044 0.519998L241.476 9.256H231.004L225.572 40H214.54L219.972 9.256H209.556L211.124 0.519998H243.044Z" fill="#63F2C5"/>
</svg>
